<svg width="50" height="50" viewBox="0 0 50 50" fill="none" xmlns="http://www.w3.org/2000/svg">
<g clip-path="url(#clip0_1_224)">
<path fill-rule="evenodd" clip-rule="evenodd" d="M45.5379 14.6371L43.8986 16.2735C40.3467 13.1831 35.7924 11.4547 31.057 11.4547C27.8689 11.4547 24.6824 12.2729 21.9501 13.7269L28.8712 6.81826C29.4177 7.18133 30.0546 7.36372 30.6933 7.36372C31.6035 7.36372 32.5154 7.00065 33.2428 6.2728C34.6995 4.8188 34.6995 2.54492 33.2428 1.09092C32.5137 0.363072 31.6035 0 30.6933 0C29.7831 0 28.8712 0.363072 28.1438 1.09092C26.9604 2.36423 26.7777 4.1813 27.5973 5.54495L18.8542 14.2723L17.2148 12.6359L12.7527 17.09L14.3921 18.7263L5.46619 27.6361C4.91974 27.273 4.28279 27.0906 3.64413 27.0906C2.73395 27.0906 1.82206 27.4537 1.09461 28.1816C-0.36202 29.6356 -0.36202 31.9095 1.09461 33.3634C1.82377 33.9993 2.73395 34.364 3.64413 34.364C4.5543 34.364 5.46619 34.001 6.19365 33.2731C7.37705 32.0918 7.55977 30.2731 6.7401 28.8191L13.6612 21.9105C10.0188 28.9111 10.8385 37.6385 16.2107 43.8192L14.5714 45.546L19.1257 50L23.5878 45.546L19.1257 41.0919L17.5768 42.638C12.2951 36.4555 12.0219 27.5475 16.4839 21.0019L17.2131 21.7298L21.7674 17.2758L20.9477 16.5479C23.8627 14.4564 27.4146 13.3655 31.057 13.3655C35.3381 13.3655 39.3443 14.9115 42.623 17.6388L40.9836 19.1849L45.5379 23.6389L50 19.1849L45.5379 14.6388V14.6371ZM21.0383 45.5459L19.1257 47.455L17.2131 45.5459L19.1257 43.6368L21.0383 45.5459V45.5459ZM29.4177 2.45463C29.7815 2.09156 30.2374 1.90917 30.6933 1.90917C31.1493 1.90917 31.6035 2.09156 31.969 2.45463C32.6981 3.18248 32.6981 4.2734 31.969 4.99955C31.6052 5.36262 31.1493 5.54501 30.6933 5.54501C30.2374 5.54501 29.7832 5.36262 29.4177 4.99955C28.6886 4.36374 28.6886 3.18077 29.4177 2.45463V2.45463ZM4.91799 31.9999C4.55426 32.363 4.09832 32.5454 3.64238 32.5454C3.18643 32.5454 2.7322 32.363 2.36676 31.9999C2.00303 31.7272 1.82031 31.2721 1.82031 30.7266C1.82031 30.2715 2.00303 29.8181 2.36676 29.4533C2.73049 29.0885 3.18643 28.9079 3.64238 28.9079C4.09832 28.9079 4.55255 29.0902 4.91799 29.4533C5.64716 30.1812 5.64716 31.3624 4.91799 31.9982V31.9999ZM17.1227 19.1815L15.2101 17.2724L17.1227 15.3633L19.0352 17.2724L17.1227 19.1815V19.1815ZM45.5379 21.0905L43.6253 19.1814L45.5379 17.2723L47.4504 19.1814L45.5379 21.0905V21.0905Z" fill="#333333"/>
</g>
<defs>
<clipPath id="clip0_1_224">
<rect width="50" height="50" fill="white"/>
</clipPath>
</defs>
</svg>
